<svg width="34" height="30" viewBox="0 0 34 30" fill="none" xmlns="http://www.w3.org/2000/svg">
<path d="M30.9375 16.875H25.4883L28.2422 14.1797C30 12.4219 28.7109 9.375 26.25 9.375H22.5V2.8125C22.5 1.28906 21.2109 0 19.6875 0H14.0625C12.4805 0 11.25 1.28906 11.25 2.8125V9.375H7.5C4.98047 9.375 3.69141 12.4219 5.50781 14.1797L8.20312 16.875H2.8125C1.23047 16.875 0 18.1641 0 19.6875V27.1875C0 28.7695 1.23047 30 2.8125 30H30.9375C32.4609 30 33.75 28.7695 33.75 27.1875V19.6875C33.75 18.1641 32.4609 16.875 30.9375 16.875ZM7.5 12.1875H14.0625V2.8125H19.6875V12.1875H26.25L16.875 21.5625L7.5 12.1875ZM30.9375 27.1875H2.8125V19.6875H11.0156L14.8828 23.5547C15.9375 24.668 17.7539 24.668 18.8086 23.5547L22.6758 19.6875H30.9375V27.1875ZM25.7812 23.4375C25.7812 24.2578 26.3672 24.8438 27.1875 24.8438C27.9492 24.8438 28.5938 24.2578 28.5938 23.4375C28.5938 22.6758 27.9492 22.0312 27.1875 22.0312C26.3672 22.0312 25.7812 22.6758 25.7812 23.4375Z" fill="black"/>
</svg>
