<svg id="Layer_1" data-name="Layer 1" xmlns="http://www.w3.org/2000/svg" viewBox="0 0 11.63 11.63"><defs><style>.cls-1{fill:#231f20;}</style></defs><title>fa-icon-</title><path class="cls-1" d="M11.63,5.81A5.82,5.82,0,1,1,5.81,0,5.83,5.83,0,0,1,11.63,5.81Zm-1.13,0A4.69,4.69,0,1,0,5.81,10.5,4.68,4.68,0,0,0,10.5,5.81Zm-3.66,3H4.78a.28.28,0,0,1-.28-.28V8a.28.28,0,0,1,.28-.28h.28V6.19H4.78a.29.29,0,0,1-.28-.28V5.34a.29.29,0,0,1,.28-.28h1.5a.28.28,0,0,1,.28.28V7.69h.28A.28.28,0,0,1,7.13,8v.56A.28.28,0,0,1,6.84,8.81Zm0-5.25a1,1,0,1,1-1-1A1,1,0,0,1,6.8,3.56Z"/></svg>