<svg width="11" height="11" viewBox="0 0 11 11" fill="none" xmlns="http://www.w3.org/2000/svg">
<path d="M9.375 0.25H1.125C0.492188 0.25 0 0.765625 0 1.375V9.625C0 10.2578 0.492188 10.75 1.125 10.75H9.375C9.98438 10.75 10.5 10.2578 10.5 9.625V1.375C10.5 0.765625 9.98438 0.25 9.375 0.25ZM8.22656 3.97656C8.22656 4.04688 8.22656 4.11719 8.22656 4.1875C8.22656 6.20312 6.67969 8.54688 3.84375 8.54688C2.97656 8.54688 2.17969 8.3125 1.5 7.86719C1.61719 7.89062 1.73438 7.89062 1.85156 7.89062C2.57812 7.89062 3.23438 7.63281 3.77344 7.23438C3.09375 7.21094 2.53125 6.76562 2.32031 6.15625C2.57812 6.20312 2.78906 6.20312 3.02344 6.13281C2.32031 5.99219 1.80469 5.38281 1.80469 4.63281V4.60938C1.99219 4.72656 2.22656 4.79688 2.48438 4.79688C2.10938 4.53906 1.80469 3.97656 1.80469 3.53125C1.80469 3.22656 1.875 2.96875 2.01562 2.73438C2.76562 3.67188 3.91406 4.28125 5.17969 4.35156C4.96875 3.32031 5.74219 2.45312 6.67969 2.45312C7.125 2.45312 7.52344 2.64062 7.80469 2.94531C8.15625 2.875 8.48438 2.75781 8.78906 2.57031C8.67188 2.94531 8.41406 3.22656 8.10938 3.41406C8.41406 3.39062 8.71875 3.29688 9 3.17969C8.78906 3.48438 8.50781 3.76562 8.22656 3.97656Z" fill="#08A0E9"/>
</svg>
