<svg id="Layer_1" data-name="Layer 1" xmlns="http://www.w3.org/2000/svg" viewBox="0 0 12 11.63"><defs><style>.cls-1{fill:#231f20;}</style></defs><title>fa-icon-</title><path class="cls-1" d="M11.71,6.89A5.81,5.81,0,0,1,1.16,9l.05,2.31a.28.28,0,0,1-.28.29H.28A.29.29,0,0,1,0,11.34V6.84a.29.29,0,0,1,.28-.28h4.5a.28.28,0,0,1,.28.28v.65a.28.28,0,0,1-.29.28l-3-.07a4.59,4.59,0,0,0,8.68-.91.29.29,0,0,1,.28-.23h.67A.28.28,0,0,1,11.71,6.89ZM12,.28v4.5a.28.28,0,0,1-.28.28H7.22a.27.27,0,0,1-.28-.28V4.13a.28.28,0,0,1,.29-.28l3,.07a4.6,4.6,0,0,0-8.68.92.28.28,0,0,1-.28.22H.56a.28.28,0,0,1-.27-.33A5.81,5.81,0,0,1,10.84,2.6L10.79.29A.28.28,0,0,1,11.07,0h.65A.29.29,0,0,1,12,.28Z"/></svg>