<svg width="11" height="11" viewBox="0 0 11 11" fill="none" xmlns="http://www.w3.org/2000/svg">
<path d="M9.75 0.25H0.726562C0.328125 0.25 0 0.601562 0 1.02344V10C0 10.4219 0.328125 10.75 0.726562 10.75H9.75C10.1484 10.75 10.5 10.4219 10.5 10V1.02344C10.5 0.601562 10.1484 0.25 9.75 0.25ZM3.16406 9.25H1.61719V4.25781H3.16406V9.25ZM2.39062 3.55469C1.875 3.55469 1.47656 3.15625 1.47656 2.66406C1.47656 2.17188 1.875 1.75 2.39062 1.75C2.88281 1.75 3.28125 2.17188 3.28125 2.66406C3.28125 3.15625 2.88281 3.55469 2.39062 3.55469ZM9 9.25H7.42969V6.8125C7.42969 6.25 7.42969 5.5 6.63281 5.5C5.8125 5.5 5.69531 6.13281 5.69531 6.78906V9.25H4.14844V4.25781H5.625V4.9375H5.64844C5.85938 4.53906 6.375 4.11719 7.125 4.11719C8.69531 4.11719 9 5.17188 9 6.50781V9.25Z" fill="#0077B5"/>
</svg>
