<svg id="Layer_1" data-name="Layer 1" xmlns="http://www.w3.org/2000/svg" viewBox="0 0 12 9"><defs><style>.cls-1{fill:#231f20;}</style></defs><title>fa-icon-</title><path class="cls-1" d="M12,8.25v.38a.38.38,0,0,1-.37.37H.75A.76.76,0,0,1,0,8.25V.38A.38.38,0,0,1,.38,0H.75a.38.38,0,0,1,.38.38v7.5h10.5A.37.37,0,0,1,12,8.25ZM2.25,6.45V4.8a.32.32,0,0,1,.3-.3h.53a.32.32,0,0,1,.3.3V6.45a.32.32,0,0,1-.3.3H2.55A.32.32,0,0,1,2.25,6.45Zm2.25,0V1.8a.32.32,0,0,1,.3-.3h.53a.32.32,0,0,1,.3.3V6.45a.32.32,0,0,1-.3.3H4.8A.32.32,0,0,1,4.5,6.45Zm2.25,0V3.3a.32.32,0,0,1,.3-.3h.53a.32.32,0,0,1,.3.3V6.45a.32.32,0,0,1-.3.3H7.05A.32.32,0,0,1,6.75,6.45ZM9,6.45V1.05a.32.32,0,0,1,.3-.3h.53a.32.32,0,0,1,.3.3v5.4a.32.32,0,0,1-.3.3H9.3A.32.32,0,0,1,9,6.45Z"/></svg>