<svg id="Layer_1" data-name="Layer 1" xmlns="http://www.w3.org/2000/svg" viewBox="0 0 11.63 11.63"><defs><style>.cls-1{fill:#231f20;}</style></defs><title>fa-icon-</title><path class="cls-1" d="M11.63,5.81A5.82,5.82,0,1,1,5.81,0,5.83,5.83,0,0,1,11.63,5.81ZM10.25,7.32H9.77a.39.39,0,0,1-.27-.11l-.74-.76a.27.27,0,0,1,0-.39l.29-.3v-.2A.27.27,0,0,0,9,5.37l-.22-.22a.25.25,0,0,0-.18-.08H8.19A.27.27,0,0,1,8,4.62l.22-.22a.27.27,0,0,1,.19-.08h.75a.27.27,0,0,0,.27-.26V3.84a.27.27,0,0,0-.27-.27H8.3A.38.38,0,0,0,7.93,4v.1a.38.38,0,0,1-.26.36l-.74.25a.18.18,0,0,0-.13.17v.06a.18.18,0,0,1-.19.18H6.24a.19.19,0,0,1-.19-.18.18.18,0,0,0-.19-.19H5.79a.21.21,0,0,0-.17.1l-.22.44a.36.36,0,0,1-.33.21H4.55a.38.38,0,0,1-.38-.38V4.48a.39.39,0,0,1,.11-.27l.48-.47a.6.6,0,0,0,.16-.41.21.21,0,0,1,.13-.18L6,2.84a.17.17,0,0,0,.1-.06l.63-.63A.27.27,0,0,0,6.8,2a.26.26,0,0,0-.27-.26H6.05l-.38.37v.19a.19.19,0,0,1-.18.19H5.11a.2.2,0,0,1-.19-.19V1.79A.19.19,0,0,1,5,1.64l.68-.51a4.69,4.69,0,0,0,.13,9.37h.24v-.17A.38.38,0,0,0,5.68,10H5.2a1.68,1.68,0,0,1-.83-.28l-.52-.39a1.06,1.06,0,0,1-.42-.85V7.87A1.06,1.06,0,0,1,3.94,7l1-.6A1.08,1.08,0,0,1,5.5,6.2h.73a1.06,1.06,0,0,1,.69.25l1,.87h.42a.75.75,0,0,1,.53.22L9.3,8a.42.42,0,0,0,.3.12h.32A5,5,0,0,0,10.25,7.32ZM4.17,3.09a.23.23,0,0,1-.07.18l-.22.22a.27.27,0,0,1-.19.08H3.31a.26.26,0,0,1-.26-.26.27.27,0,0,1,.08-.19l.59-.6a.32.32,0,0,1,.19-.07.26.26,0,0,1,.26.26Z"/></svg>