<svg id="Layer_1" data-name="Layer 1" xmlns="http://www.w3.org/2000/svg" viewBox="0 0 12 12"><defs><style>.cls-1{fill:#231f20;}</style></defs><title>fa-icon-</title><path class="cls-1" d="M12,.78V8.43a.79.79,0,0,1-.53.73,7.9,7.9,0,0,1-2.9.59c-1.91,0-3.23-.81-5.14-.81a7.48,7.48,0,0,0-2.3.39v2.39A.29.29,0,0,1,.84,12H.28A.29.29,0,0,1,0,11.72V.56A.56.56,0,0,1,1.1.43,8.14,8.14,0,0,1,3.55,0C5.34,0,6.24.82,7.79.82A6.83,6.83,0,0,0,10.58.11,1.24,1.24,0,0,1,11.07,0,.85.85,0,0,1,12,.78Zm-1.12,3.3a8,8,0,0,1-5,0,7,7,0,0,0-4.73.12V5.67a8.06,8.06,0,0,1,5,0,7.09,7.09,0,0,0,4.74-.12Zm0,2.62a8,8,0,0,1-5,0,7,7,0,0,0-4.73.13V8.15a9,9,0,0,1,5.14.1,6.72,6.72,0,0,0,4.61-.07ZM2.06,1.31a.38.38,0,1,0,.75,0,.38.38,0,0,0-.75,0Zm0,1.32a.38.38,0,1,0,.38-.38A.38.38,0,0,0,2.06,2.63ZM3.75,1.31a.38.38,0,1,0,.75,0,.38.38,0,0,0-.75,0Zm0,1.32a.38.38,0,1,0,.38-.38A.38.38,0,0,0,3.75,2.63ZM10.88,1.2a7.64,7.64,0,0,1-3.09.74A6.28,6.28,0,0,1,6,1.66V3a7.14,7.14,0,0,0,4.88-.09Z"/></svg>