<svg width="1440" height="2180" viewBox="0 0 1440 2180" fill="none" xmlns="http://www.w3.org/2000/svg">
<path opacity="0.05" d="M2943.48 929.901C2642.7 891.696 2347.12 896.882 2085.3 1002.14C1741.07 1140.47 1512.33 1433.37 1164.69 1565.94C727.571 1732.67 285.151 1829.35 -182.805 1799.34C-613.911 1771.73 -789.724 1576.89 -962.659 1640.99L-1198.48 2521.1L2268.22 3450L2943.48 929.901Z" fill="#1F4089"/>
<path d="M2729.94 892C2710.87 900.946 2692.02 910.571 2673.45 920.762C2382.28 1081.27 2224.13 1367.81 1971.06 1570C1608.68 1859.42 1256.6 2106.84 639.906 2121.79C73.7548 2135.49 -355.358 2056.11 -845.264 2110.01C-1047.11 2132.21 -1377.79 2227.1 -1695 2411.05L-1656.91 3140L2835 2905.55L2729.94 892Z" fill="#1398AD"/>
<path d="M2631 1095C2612.6 1102.53 2594.37 1110.62 2576.32 1119.34C2293.9 1256.3 2130.69 1518.58 1882.07 1696.63C1526.17 1951.55 1181.99 2167.47 599.772 2151.17C65.2743 2136.22 -335.401 2040.29 -799.987 2067.01C-991.381 2077.99 -1307.88 2151.17 -1616 2308.9L-1616 3394L2631 3394L2631 1095Z" fill="#1F4089"/>
</svg>
